# xmcd
#
# Track frame offsets:
#	150
#	16732
#	34327
#	59132
#	77735
#	114390
#	143717
#	160925
#	185972
#	211945
#	234437
#	250815
#
# Disc length: 3634 seconds
#
# Revision: 1
# Processed by: cddbd v1.4PL0 Copyright (c) Steve Scherf et al.
# Submitted via: CDmax 2.0
#
DISCID=a40e300c
DTITLE=Little MArtin and The Roosters - Step Outside
DYEAR=1997
DGENRE=Blues
TTITLE0=Dyin' Flu
TTITLE1=Ain't No Prisoner
TTITLE2=I Got A Woman
TTITLE3=Won't You Please Look Down On Me
TTITLE4=Mystery Train
TTITLE5=Early In The Morning
TTITLE6=Step Outside
TTITLE7=Rooster Boogie
TTITLE8=Snow Keeps On Falling
TTITLE9=You Don't Have To Go
TTITLE10=What Have I Done Wrong
TTITLE11=Rock Me
EXTD=
EXTT0=
EXTT1=
EXTT2=
EXTT3=
EXTT4=
EXTT5=
EXTT6=
EXTT7=
EXTT8=
EXTT9=
EXTT10=
EXTT11=
PLAYORDER=
